<svg width="40" height="40" viewBox="0 0 40 40" fill="none" xmlns="http://www.w3.org/2000/svg">
<path d="M19.9999 3.5293C10.9803 3.5293 3.76465 10.8234 3.76465 19.843C3.76465 25.2548 6.43131 30.0391 10.5097 33.0195C11.8431 32.4705 13.098 31.9999 14.0392 31.7646C15.2156 31.4509 15.9215 29.6469 15.9215 27.6077C14.4313 25.6469 13.4901 22.8234 12.9411 20.9411C12.9411 20.9411 11.5294 20.4705 11.5294 18.8234C11.5294 17.1764 12.9411 16.7058 12.9411 16.7058C12.9411 13.4116 13.4901 7.5293 19.9999 7.5293C26.5097 7.5293 27.0588 13.4116 27.0588 16.7058C27.0588 16.7058 28.4705 17.1764 28.4705 18.8234C28.4705 20.4705 27.0588 20.9411 27.0588 20.9411C26.5882 22.8234 25.5686 25.6469 23.9999 27.6077C23.9999 29.6469 24.7843 31.3724 25.9607 31.6862C26.9019 31.9215 28.1568 32.392 29.4901 32.9411C33.5686 30.0391 36.2352 25.1764 36.2352 19.7646C36.2352 10.8234 29.0195 3.5293 19.9999 3.5293Z" stroke="white" stroke-width="1.60784"/>
<path d="M29.4902 32.9408C26.8235 34.9015 23.5294 36.078 20 36.078C16.4706 36.078 13.1764 34.98 10.5098 33.0192C11.8431 32.4702 13.098 31.9996 14.0392 31.7643C15.2156 31.4506 15.9215 29.6466 15.9215 27.6074C16.9411 28.9408 18.2745 29.8819 19.9215 29.8819C21.5686 29.8819 22.9019 28.9408 24 27.6074C24 29.6466 24.7843 31.3721 25.9607 31.6859C26.9019 31.9211 28.1568 32.3917 29.4902 32.9408Z" stroke="white" stroke-width="1.60784"/>
<path d="M28.4705 18.8234C28.4705 20.4705 27.0587 20.9411 27.0587 20.9411C26.5881 22.8234 25.5685 25.6469 23.9999 27.6077C22.9018 28.9411 21.5685 29.8822 19.9215 29.8822C18.2744 29.8822 16.9411 28.9411 15.9215 27.6077C14.4313 25.6469 13.4901 22.8234 12.9411 20.9411C12.9411 20.9411 11.5293 20.4705 11.5293 18.8234C11.5293 17.1764 12.9411 16.7058 12.9411 16.7058C12.9411 13.4116 13.4901 7.5293 19.9999 7.5293C26.5097 7.5293 27.0587 13.4116 27.0587 16.7058C27.0587 16.7058 28.4705 17.1764 28.4705 18.8234Z" stroke="white" stroke-width="1.60784"/>
</svg>
